<svg id="visual" viewBox="0 0 1366 768" width="1366" height="768" xmlns="http://www.w3.org/2000/svg" xmlns:xlink="http://www.w3.org/1999/xlink" version="1.1"><rect x="0" y="0" width="1366" height="768" fill="#EBECED"></rect><defs><linearGradient id="grad1_0" x1="43.8%" y1="100%" x2="100%" y2="0%"><stop offset="14.427083333333334%" stop-color="#ebeced" stop-opacity="1"></stop><stop offset="85.57291666666667%" stop-color="#ebeced" stop-opacity="1"></stop></linearGradient></defs><defs><linearGradient id="grad2_0" x1="0%" y1="100%" x2="56.2%" y2="0%"><stop offset="14.427083333333334%" stop-color="#ebeced" stop-opacity="1"></stop><stop offset="85.57291666666667%" stop-color="#ebeced" stop-opacity="1"></stop></linearGradient></defs><g transform="translate(1366, 768)"><path d="M-384 0C-374.7 -68.4 -365.4 -136.9 -332.6 -192C-299.7 -247.1 -243.3 -288.9 -184 -318.7C-124.7 -348.5 -62.3 -366.2 0 -384L0 0Z" fill="#080ECB"></path></g><g transform="translate(0, 0)"><path d="M384 0C359.3 58.3 334.6 116.7 305.7 176.5C276.8 236.3 243.7 297.7 192 332.6C140.3 367.4 70.2 375.7 0 384L0 0Z" fill="#080ECB"></path></g></svg>