<!-- <svg id="visual" viewBox="0 0 1166 570" width="1166" height="570" xmlns="http://www.w3.org/2000/svg" xmlns:xlink="http://www.w3.org/1999/xlink" version="1.1"><rect x="0" y="0" width="1166" height="570" fill="#EBECED"></rect><defs><linearGradient id="grad1_0" x1="51.1%" y1="0%" x2="100%" y2="100%"><stop offset="9.087719298245613%" stop-color="#ebeced" stop-opacity="1"></stop><stop offset="90.9122807017544%" stop-color="#ebeced" stop-opacity="1"></stop></linearGradient></defs><defs><linearGradient id="grad2_0" x1="0%" y1="0%" x2="48.9%" y2="100%"><stop offset="9.087719298245613%" stop-color="#ebeced" stop-opacity="1"></stop><stop offset="90.9122807017544%" stop-color="#ebeced" stop-opacity="1"></stop></linearGradient></defs><g transform="translate(1166, 0)"><path d="M0 342C-37.1 314.6 -74.2 287.3 -111.7 269.8C-149.3 252.3 -187.3 244.6 -224.2 224.2C-261 203.7 -296.5 170.4 -316 130.9C-335.4 91.4 -338.7 45.7 -342 0L0 0Z" fill="#080ECB"></path></g><g transform="translate(0, 570)"><path d="M0 -342C44.5 -337.2 89.1 -332.4 130.9 -316C172.7 -299.5 211.8 -271.4 236.2 -236.2C260.6 -201 270.3 -158.8 285.5 -118.2C300.7 -77.7 321.3 -38.9 342 0L0 0Z" fill="#080ECB"></path></g></svg> -->

<!-- <svg id="visual" viewBox="0 0 1166 570" width="1166" height="570" xmlns="http://www.w3.org/2000/svg" xmlns:xlink="http://www.w3.org/1999/xlink" version="1.1"><rect x="0" y="0" width="1166" height="570" fill="#001220"></rect><defs><linearGradient id="grad1_0" x1="51.1%" y1="0%" x2="100%" y2="100%"><stop offset="9.087719298245613%" stop-color="#001220" stop-opacity="1"></stop><stop offset="90.9122807017544%" stop-color="#001220" stop-opacity="1"></stop></linearGradient></defs><defs><linearGradient id="grad2_0" x1="0%" y1="0%" x2="48.9%" y2="100%"><stop offset="9.087719298245613%" stop-color="#001220" stop-opacity="1"></stop><stop offset="90.9122807017544%" stop-color="#001220" stop-opacity="1"></stop></linearGradient></defs><g transform="translate(1166, 0)"><path d="M0 342C-37.1 314.6 -74.2 287.3 -111.7 269.8C-149.3 252.3 -187.3 244.6 -224.2 224.2C-261 203.7 -296.5 170.4 -316 130.9C-335.4 91.4 -338.7 45.7 -342 0L0 0Z" fill="#080ECB"></path></g><g transform="translate(0, 570)"><path d="M0 -342C44.5 -337.2 89.1 -332.4 130.9 -316C172.7 -299.5 211.8 -271.4 236.2 -236.2C260.6 -201 270.3 -158.8 285.5 -118.2C300.7 -77.7 321.3 -38.9 342 0L0 0Z" fill="#080ECB"></path></g></svg> -->


<!-- light mode -->
<svg id="visual" viewBox="0 0 1166 570" width="1166" height="570" xmlns="http://www.w3.org/2000/svg" xmlns:xlink="http://www.w3.org/1999/xlink" version="1.1"><rect x="0" y="0" width="1166" height="570" fill="#ebeced"></rect><defs><linearGradient id="grad1_0" x1="51.1%" y1="0%" x2="100%" y2="100%"><stop offset="9.087719298245613%" stop-color="#ebeced" stop-opacity="1"></stop><stop offset="90.9122807017544%" stop-color="#ebeced" stop-opacity="1"></stop></linearGradient></defs><defs><linearGradient id="grad2_0" x1="0%" y1="0%" x2="48.9%" y2="100%"><stop offset="9.087719298245613%" stop-color="#ebeced" stop-opacity="1"></stop><stop offset="90.9122807017544%" stop-color="#ebeced" stop-opacity="1"></stop></linearGradient></defs><g transform="translate(1166, 0)"><path d="M0 285C-37.1 281.1 -74.2 277.3 -109.1 263.3C-143.9 249.3 -176.6 225.2 -195.2 195.2C-213.8 165.1 -218.3 129.2 -231 95.7C-243.6 62.2 -264.3 31.1 -285 0L0 0Z" fill="#080ECB"></path></g><g transform="translate(0, 570)"><path d="M0 -285C36.8 -280.6 73.5 -276.2 109.1 -263.3C144.6 -250.4 179 -229.1 200.1 -200.1C221.3 -171.1 229.2 -134.5 241.1 -99.9C253.1 -65.3 269 -32.6 285 0L0 0Z" fill="#080ECB"></path></g></svg>
