<!-- Dark Mode -->
<svg id="visual" viewBox="0 0 1166 570" width="1166" height="570" xmlns="http://www.w3.org/2000/svg" xmlns:xlink="http://www.w3.org/1999/xlink" version="1.1"><rect x="0" y="0" width="1166" height="570" fill="#001220"></rect><defs><linearGradient id="grad1_0" x1="51.1%" y1="100%" x2="100%" y2="0%"><stop offset="9.087719298245613%" stop-color="#001220" stop-opacity="1"></stop><stop offset="90.9122807017544%" stop-color="#001220" stop-opacity="1"></stop></linearGradient></defs><defs><linearGradient id="grad2_0" x1="0%" y1="100%" x2="48.9%" y2="0%"><stop offset="9.087719298245613%" stop-color="#001220" stop-opacity="1"></stop><stop offset="90.9122807017544%" stop-color="#001220" stop-opacity="1"></stop></linearGradient></defs><g transform="translate(1166, 570)"><path d="M-342 0C-314.6 -37.1 -287.3 -74.2 -269.8 -111.7C-252.3 -149.3 -244.6 -187.3 -224.2 -224.2C-203.7 -261 -170.4 -296.5 -130.9 -316C-91.4 -335.4 -45.7 -338.7 0 -342L0 0Z" fill="#080ECB"></path></g><g transform="translate(0, 0)"><path d="M342 0C337.2 44.5 332.4 89.1 316 130.9C299.5 172.7 271.4 211.8 236.2 236.2C201 260.6 158.8 270.3 118.2 285.5C77.7 300.7 38.9 321.3 0 342L0 0Z" fill="#080ECB"></path></g></svg>